<svg width="31" height="30" viewBox="0 0 31 30" fill="none" xmlns="http://www.w3.org/2000/svg">
<g id="Social icon" clip-path="url(#clip0_8_487)">
<g id="Group">
<path id="Vector" d="M15.5 2.70117C19.5078 2.70117 19.9824 2.71875 21.5586 2.78906C23.0234 2.85352 23.8145 3.09961 24.3418 3.30469C25.0391 3.57422 25.543 3.90234 26.0645 4.42383C26.5918 4.95117 26.9141 5.44922 27.1836 6.14648C27.3887 6.67383 27.6348 7.4707 27.6992 8.92969C27.7695 10.5117 27.7871 10.9863 27.7871 14.9883C27.7871 18.9961 27.7695 19.4707 27.6992 21.0469C27.6348 22.5117 27.3887 23.3027 27.1836 23.8301C26.9141 24.5273 26.5859 25.0313 26.0645 25.5527C25.5371 26.0801 25.0391 26.4023 24.3418 26.6719C23.8145 26.877 23.0176 27.123 21.5586 27.1875C19.9766 27.2578 19.502 27.2754 15.5 27.2754C11.4922 27.2754 11.0176 27.2578 9.44141 27.1875C7.97656 27.123 7.18555 26.877 6.6582 26.6719C5.96094 26.4023 5.45703 26.0742 4.93555 25.5527C4.4082 25.0254 4.08594 24.5273 3.81641 23.8301C3.61133 23.3027 3.36523 22.5059 3.30078 21.0469C3.23047 19.4648 3.21289 18.9902 3.21289 14.9883C3.21289 10.9805 3.23047 10.5059 3.30078 8.92969C3.36523 7.46484 3.61133 6.67383 3.81641 6.14648C4.08594 5.44922 4.41406 4.94531 4.93555 4.42383C5.46289 3.89648 5.96094 3.57422 6.6582 3.30469C7.18555 3.09961 7.98242 2.85352 9.44141 2.78906C11.0176 2.71875 11.4922 2.70117 15.5 2.70117ZM15.5 0C11.4277 0 10.918 0.0175781 9.31836 0.0878906C7.72461 0.158203 6.62891 0.416016 5.67969 0.785156C4.68945 1.17187 3.85156 1.68164 3.01953 2.51953C2.18164 3.35156 1.67188 4.18945 1.28516 5.17383C0.916016 6.12891 0.658203 7.21875 0.587891 8.8125C0.517578 10.418 0.5 10.9277 0.5 15C0.5 19.0723 0.517578 19.582 0.587891 21.1816C0.658203 22.7754 0.916016 23.8711 1.28516 24.8203C1.67188 25.8105 2.18164 26.6484 3.01953 27.4805C3.85156 28.3125 4.68945 28.8281 5.67383 29.209C6.62891 29.5781 7.71875 29.8359 9.3125 29.9062C10.9121 29.9766 11.4219 29.9941 15.4941 29.9941C19.5664 29.9941 20.0762 29.9766 21.6758 29.9062C23.2695 29.8359 24.3652 29.5781 25.3145 29.209C26.2988 28.8281 27.1367 28.3125 27.9688 27.4805C28.8008 26.6484 29.3164 25.8105 29.6973 24.8262C30.0664 23.8711 30.3242 22.7813 30.3945 21.1875C30.4648 19.5879 30.4824 19.0781 30.4824 15.0059C30.4824 10.9336 30.4648 10.4238 30.3945 8.82422C30.3242 7.23047 30.0664 6.13477 29.6973 5.18555C29.3281 4.18945 28.8184 3.35156 27.9805 2.51953C27.1484 1.6875 26.3105 1.17188 25.3262 0.791016C24.3711 0.421875 23.2813 0.164062 21.6875 0.09375C20.082 0.0175781 19.5723 0 15.5 0Z" fill="#FFE243"/>
<path id="Vector_2" d="M15.5 7.29492C11.2461 7.29492 7.79492 10.7461 7.79492 15C7.79492 19.2539 11.2461 22.7051 15.5 22.7051C19.7539 22.7051 23.2051 19.2539 23.2051 15C23.2051 10.7461 19.7539 7.29492 15.5 7.29492ZM15.5 19.998C12.7402 19.998 10.502 17.7598 10.502 15C10.502 12.2402 12.7402 10.002 15.5 10.002C18.2598 10.002 20.498 12.2402 20.498 15C20.498 17.7598 18.2598 19.998 15.5 19.998Z" fill="#FFE243"/>
<path id="Vector_3" d="M25.3086 6.99024C25.3086 7.98633 24.5 8.78907 23.5098 8.78907C22.5137 8.78907 21.7109 7.98047 21.7109 6.99024C21.7109 5.99414 22.5195 5.19141 23.5098 5.19141C24.5 5.19141 25.3086 6 25.3086 6.99024Z" fill="#FFE243"/>
</g>
</g>
<defs>
<clipPath id="clip0_8_487">
<rect width="30" height="30" fill="white" transform="translate(0.5)"/>
</clipPath>
</defs>
</svg>
