
<svg width="173" height="72" viewBox="0 0 173 72" fill="none" xmlns="http://www.w3.org/2000/svg">
<mask id="mask0_218_17" style="mask-type:luminance" maskUnits="userSpaceOnUse" x="0" y="34" width="57" height="38">
<path d="M0.28125 34.3774H56.7056V71.0056H0.28125V34.3774Z" fill="white"/>
</mask>
<g mask="url(#mask0_218_17)">
<path d="M8.78572 37.7932C10.4871 37.315 12.3418 37.0085 14.3101 37.0085C16.6086 37.0085 18.9044 37.4286 21.1422 38.2529C24.9281 39.6505 28.2358 42.1603 31.2529 45.9199C31.8817 46.6992 32.4814 47.4971 33.1155 48.3425C34.2066 49.7903 35.3163 51.2672 36.5712 52.6568C36.5712 52.6568 28.9307 47.8934 25.5199 46.8815C25.5199 46.8815 27.7312 50.6833 27.7312 52.3292L22.6164 48.7177L23.5965 53.8352C22.8568 52.5142 22.1963 51.1536 21.6388 49.7824C18.775 42.7469 13.5677 39.3784 8.78572 37.7932ZM53.1627 57.7796C51.7545 57.9117 50.3279 57.8562 48.9408 57.5815C46.0743 57.0108 43.5909 55.4071 41.3056 53.6449C38.0137 51.1087 35.7918 47.5314 33.2212 44.3294C30.1988 40.5646 26.5793 37.5607 22.014 35.8751C12.8464 32.4908 4.92317 35.928 0.28125 38.9689C4.3393 38.9874 14.9679 40.0943 19.3007 50.7388C23.9743 62.226 35.2 73.3011 46.497 70.5931C50.7136 69.5812 53.5801 67.1269 55.271 63.1745C56.0873 61.2617 56.5629 59.1746 56.6791 57.0742C56.6607 57.3939 53.4929 57.7505 53.1627 57.7796Z" fill="#35DF91"/>
</g>
<mask id="mask1_218_17" style="mask-type:luminance" maskUnits="userSpaceOnUse" x="31" y="0" width="34" height="54">
<path d="M31.9189 0H64.6977V53.9699H31.9189V0Z" fill="white"/>
</mask>
<g mask="url(#mask1_218_17)">
<path d="M47.1209 22.1687C47.1209 22.1687 51.4167 21.598 52.4893 25.3364C52.4893 25.3364 49.3322 26.5411 47.1209 22.1687ZM63.4799 30.7048C60.3465 28.6441 58.3888 26.3694 57.5751 25.8278C57.5751 25.8251 54.5368 20.6178 50.2172 16.9085C50.1248 16.7077 50.7773 6.89815 48.9412 0C48.9412 0 43.224 5.26807 39.8317 13.799C38.7855 14.2032 34.9335 16.9006 32.9943 21.4659C31.1053 25.915 32.1013 30.113 34.672 34.0522C36.1937 36.3798 38.5345 39.0112 42.1329 41.4946C51.8579 48.2105 53.1657 48.4245 56.4919 53.8933C55.0705 45.8433 46.8805 39.1195 45.1315 35.9174C43.7048 33.3045 44.7907 32.4036 46.5898 32.2478C48.6876 32.0655 51.7496 32.8897 52.9147 33.1777C55.8103 33.8884 58.7983 34.0416 61.7468 33.5714C62.4442 33.4604 64.5287 33.4155 64.6873 32.5701C64.8035 31.9598 63.929 31.0007 63.4799 30.7048Z" fill="#35DF91"/>
</g>
<path d="M84.64 43.28C82.5867 43.28 80.7467 42.9467 79.12 42.28C77.4933 41.6133 76.1867 40.6267 75.2 39.32C74.24 38.0133 73.7333 36.44 73.68 34.6H80.96C81.0667 35.64 81.4267 36.44 82.04 37C82.6533 37.5333 83.4533 37.8 84.44 37.8C85.4533 37.8 86.2533 37.5733 86.84 37.12C87.4267 36.64 87.72 35.9867 87.72 35.16C87.72 34.4667 87.48 33.8933 87 33.44C86.5467 32.9867 85.9733 32.6133 85.28 32.32C84.6133 32.0267 83.6533 31.6933 82.4 31.32C80.5867 30.76 79.1067 30.2 77.96 29.64C76.8133 29.08 75.8267 28.2533 75 27.16C74.1733 26.0667 73.76 24.64 73.76 22.88C73.76 20.2667 74.7067 18.2267 76.6 16.76C78.4933 15.2667 80.96 14.52 84 14.52C87.0933 14.52 89.5867 15.2667 91.48 16.76C93.3733 18.2267 94.3867 20.28 94.52 22.92H87.12C87.0667 22.0133 86.7333 21.3067 86.12 20.8C85.5067 20.2667 84.72 20 83.76 20C82.9333 20 82.2667 20.2267 81.76 20.68C81.2533 21.1067 81 21.7333 81 22.56C81 23.4667 81.4267 24.1733 82.28 24.68C83.1333 25.1867 84.4667 25.7333 86.28 26.32C88.0933 26.9333 89.56 27.52 90.68 28.08C91.8267 28.64 92.8133 29.4533 93.64 30.52C94.4667 31.5867 94.88 32.96 94.88 34.64C94.88 36.24 94.4667 37.6933 93.64 39C92.84 40.3067 91.6667 41.3467 90.12 42.12C88.5733 42.8933 86.7467 43.28 84.64 43.28ZM105.809 14.92V31.72C105.809 33.4 106.223 34.6933 107.049 35.6C107.876 36.5067 109.089 36.96 110.689 36.96C112.289 36.96 113.516 36.5067 114.369 35.6C115.223 34.6933 115.649 33.4 115.649 31.72V14.92H122.489V31.68C122.489 34.1867 121.956 36.3067 120.889 38.04C119.823 39.7733 118.383 41.08 116.569 41.96C114.783 42.84 112.783 43.28 110.569 43.28C108.356 43.28 106.369 42.8533 104.609 42C102.876 41.12 101.503 39.8133 100.489 38.08C99.476 36.32 98.9694 34.1867 98.9694 31.68V14.92H105.809ZM141.613 43L135.773 32.4H134.133V43H127.293V14.92H138.773C140.986 14.92 142.866 15.3067 144.413 16.08C145.986 16.8533 147.159 17.92 147.933 19.28C148.706 20.6133 149.093 22.1067 149.093 23.76C149.093 25.6267 148.559 27.2933 147.493 28.76C146.453 30.2267 144.906 31.2667 142.853 31.88L149.333 43H141.613ZM134.133 27.56H138.373C139.626 27.56 140.559 27.2533 141.173 26.64C141.813 26.0267 142.133 25.16 142.133 24.04C142.133 22.9733 141.813 22.1333 141.173 21.52C140.559 20.9067 139.626 20.6 138.373 20.6H134.133V27.56ZM171.666 14.92V20.4H160.226V26.32H168.786V31.64H160.226V43H153.386V14.92H171.666Z" fill="white"/>
<path d="M81.78 57.9H75.7L74.58 61H72.66L77.7 47.14H79.8L84.82 61H82.9L81.78 57.9ZM81.26 56.42L78.74 49.38L76.22 56.42H81.26ZM92.3566 49.84C93.6899 49.84 94.7699 50.2467 95.5966 51.06C96.4232 51.86 96.8366 53.02 96.8366 54.54V61H95.0366V54.8C95.0366 53.7067 94.7632 52.8733 94.2166 52.3C93.6699 51.7133 92.9232 51.42 91.9766 51.42C91.0166 51.42 90.2499 51.72 89.6766 52.32C89.1166 52.92 88.8366 53.7933 88.8366 54.94V61H87.0166V50.04H88.8366V51.6C89.1966 51.04 89.6832 50.6067 90.2966 50.3C90.9232 49.9933 91.6099 49.84 92.3566 49.84ZM109.25 50.04L102.65 66.16H100.77L102.93 60.88L98.5095 50.04H100.53L103.97 58.92L107.37 50.04H109.25ZM125.679 50.04L122.259 61H120.379L117.739 52.3L115.099 61H113.219L109.779 50.04H111.639L114.159 59.24L116.879 50.04H118.739L121.399 59.26L123.879 50.04H125.679ZM132.925 49.84C133.752 49.84 134.499 50.02 135.165 50.38C135.832 50.7267 136.352 51.2533 136.725 51.96C137.112 52.6667 137.305 53.5267 137.305 54.54V61H135.505V54.8C135.505 53.7067 135.232 52.8733 134.685 52.3C134.139 51.7133 133.392 51.42 132.445 51.42C131.485 51.42 130.719 51.72 130.145 52.32C129.585 52.92 129.305 53.7933 129.305 54.94V61H127.485V46.2H129.305V51.6C129.665 51.04 130.159 50.6067 130.785 50.3C131.425 49.9933 132.139 49.84 132.925 49.84ZM150.278 55.1C150.278 55.4467 150.258 55.8133 150.218 56.2H141.458C141.525 57.28 141.892 58.1267 142.558 58.74C143.238 59.34 144.058 59.64 145.018 59.64C145.805 59.64 146.458 59.46 146.978 59.1C147.512 58.7267 147.885 58.2333 148.098 57.62H150.058C149.765 58.6733 149.178 59.5333 148.298 60.2C147.418 60.8533 146.325 61.18 145.018 61.18C143.978 61.18 143.045 60.9467 142.218 60.48C141.405 60.0133 140.765 59.3533 140.298 58.5C139.832 57.6333 139.598 56.6333 139.598 55.5C139.598 54.3667 139.825 53.3733 140.278 52.52C140.732 51.6667 141.365 51.0133 142.178 50.56C143.005 50.0933 143.952 49.86 145.018 49.86C146.058 49.86 146.978 50.0867 147.778 50.54C148.578 50.9933 149.192 51.62 149.618 52.42C150.058 53.2067 150.278 54.1 150.278 55.1ZM148.398 54.72C148.398 54.0267 148.245 53.4333 147.938 52.94C147.632 52.4333 147.212 52.0533 146.678 51.8C146.158 51.5333 145.578 51.4 144.938 51.4C144.018 51.4 143.232 51.6933 142.578 52.28C141.938 52.8667 141.572 53.68 141.478 54.72H148.398ZM154.501 51.82C154.821 51.1933 155.274 50.7067 155.861 50.36C156.461 50.0133 157.187 49.84 158.041 49.84V51.72H157.561C155.521 51.72 154.501 52.8267 154.501 55.04V61H152.681V50.04H154.501V51.82ZM170.142 55.1C170.142 55.4467 170.122 55.8133 170.082 56.2H161.322C161.388 57.28 161.755 58.1267 162.422 58.74C163.102 59.34 163.922 59.64 164.882 59.64C165.668 59.64 166.322 59.46 166.842 59.1C167.375 58.7267 167.748 58.2333 167.962 57.62H169.922C169.628 58.6733 169.042 59.5333 168.162 60.2C167.282 60.8533 166.188 61.18 164.882 61.18C163.842 61.18 162.908 60.9467 162.082 60.48C161.268 60.0133 160.628 59.3533 160.162 58.5C159.695 57.6333 159.462 56.6333 159.462 55.5C159.462 54.3667 159.688 53.3733 160.142 52.52C160.595 51.6667 161.228 51.0133 162.042 50.56C162.868 50.0933 163.815 49.86 164.882 49.86C165.922 49.86 166.842 50.0867 167.642 50.54C168.442 50.9933 169.055 51.62 169.482 52.42C169.922 53.2067 170.142 54.1 170.142 55.1ZM168.262 54.72C168.262 54.0267 168.108 53.4333 167.802 52.94C167.495 52.4333 167.075 52.0533 166.542 51.8C166.022 51.5333 165.442 51.4 164.802 51.4C163.882 51.4 163.095 51.6933 162.442 52.28C161.802 52.8667 161.435 53.68 161.342 54.72H168.262Z" fill="#35DF91"/>
</svg>
