<svg width="31" height="30" viewBox="0 0 31 30" fill="none" xmlns="http://www.w3.org/2000/svg">
<g id="Social icon" clip-path="url(#clip0_8_494)">
<path id="Vector" d="M9.9344 27.1886C21.2552 27.1886 27.4472 17.8094 27.4472 9.67577C27.4472 9.40937 27.4472 9.14417 27.4292 8.88017C28.6338 8.00887 29.6736 6.93003 30.5 5.69417C29.3767 6.19217 28.185 6.51862 26.9648 6.66257C28.2498 5.89343 29.2114 4.68355 29.6708 3.25817C28.4626 3.97518 27.1408 4.48046 25.7624 4.75217C24.8344 3.76539 23.607 3.11197 22.2702 2.89303C20.9335 2.67408 19.5618 2.90182 18.3675 3.54099C17.1731 4.18016 16.2228 5.19514 15.6634 6.42886C15.1041 7.66258 14.9669 9.04625 15.2732 10.3658C12.8261 10.243 10.4322 9.60706 8.24682 8.49918C6.06144 7.39129 4.13345 5.83625 2.588 3.93497C1.80091 5.28997 1.55984 6.89401 1.91387 8.4205C2.26791 9.94699 3.19043 11.2812 4.4936 12.1514C3.51404 12.1227 2.55581 11.8584 1.7 11.381V11.459C1.70039 12.88 2.19231 14.2572 3.09234 15.3569C3.99236 16.4566 5.24508 17.2112 6.638 17.4926C5.73185 17.7397 4.78109 17.7759 3.8588 17.5982C4.25227 18.8211 5.01804 19.8905 6.04905 20.6568C7.08006 21.4232 8.32478 21.8483 9.6092 21.8726C8.33305 22.8757 6.87164 23.6173 5.30859 24.0551C3.74554 24.4928 2.11152 24.6181 0.5 24.4238C3.31479 26.23 6.58991 27.1882 9.9344 27.1838" fill="#FFE243"/>
</g>
<defs>
<clipPath id="clip0_8_494">
<rect width="30" height="30" fill="white" transform="translate(0.5)"/>
</clipPath>
</defs>
</svg>
